<?xml version="1.0" encoding="utf-8"?>
<!-- Generator: Adobe Illustrator 16.0.0, SVG Export Plug-In . SVG Version: 6.00 Build 0)  -->
<!DOCTYPE svg PUBLIC "-//W3C//DTD SVG 1.1//EN" "http://www.w3.org/Graphics/SVG/1.1/DTD/svg11.dtd">
<svg version="1.1" id="Layer_1" xmlns="http://www.w3.org/2000/svg" xmlns:xlink="http://www.w3.org/1999/xlink" x="0px" y="0px"
	 width="160px" height="160px" viewBox="0 0 160 160" enable-background="new 0 0 160 160" xml:space="preserve">
<circle fill="#335262" cx="80" cy="80" r="50"/>
<g transform=" matrix(0.866, -0.5, 0.25, 0.433, 80, 80)">
	<path fill="#FFFFFF" d="M0,70.001C35.898,70.001,65,38.66,65,0c0-2.762,2.238-5,5-5c2.762,0,5,2.238,5,5
		C75,38.66,41.421,70.001,0,70.001z	">
<animateTransform  type="rotate" fill="remove" restart="always" calcMode="linear" additive="replace" accumulate="none" repeatCount="indefinite" dur="1s" to="0 0 0" from="360 0 0" attributeName="transform">
			</animateTransform>
	</path>
</g>
<path fill="#335262" d="M123.3,55C109.492,31.086,78.914,22.893,55,36.7C31.086,50.507,22.893,81.086,36.7,105L123.3,55z"/>
<g>
	<g>
		<path fill="#FFFFFF" d="M84.924,53.694c0,0-0.438,9.038-3.98,13.731l-5.279,7.231L53.805,100.74l11.213-9.428L77.205,80.02
			l6.661-6.828c0,0,3.579-4.893,4.309-6.986C88.977,63.9,91.182,63.2,84.924,53.694z"/>
		<path fill="#FFFFFF" d="M72.086,88.309c0,0,4.307,2.357,8.207,7.881c0,0,5.118-6.658,6.909-7.553c0,0-4.065-1.058-6.583,5.93
			C80.618,94.562,76.231,87.252,72.086,88.309z"/>
		<path fill="#FFFFFF" d="M85.248,75.635c0,0,3.738,13.001,4.469,13.487c0,0,2.033,6.176,3.493,6.662c0,0,2.847,4.319,6.582,4.063
			c0,0,5.362,1.217,7.067,0.893c0,0-4.145-2.436-5.36-3.33c-1.22-0.896-6.502-4.655-6.095-5.213c0,0-3.006-3.646-3.899-5.514
			c0,0-2.845-5.937-3.901-7.396C87.605,79.289,85.9,76.527,85.248,75.635z"/>
	</g>
</g>
<g>
	<circle fill="#E0E0E0" cx="25.854" cy="-41.54" r="8.938"/>
	<circle fill="#B3B3B3" cx="25.854" cy="-19.998" r="8.938"/>
	<circle fill="#444444" cx="5.228" cy="-40.395" r="8.938"/>
	<circle fill="#606060" cx="-15.054" cy="-40.395" r="8.938"/>
	<circle fill="#E86C60" cx="48.993" cy="-41.54" r="8.938"/>
	<circle fill="#A67C52" cx="48.993" cy="-61.48" r="8.938"/>
	<circle fill="#DDBE99" cx="69.169" cy="-61.48" r="8.938"/>
	<circle fill="#EAD8C5" cx="89.795" cy="-61.48" r="8.938"/>
	<circle fill="#FA645A" cx="69.169" cy="-41.54" r="8.938"/>
	<circle fill="#EA9860" cx="47.827" cy="-20.198" r="8.938"/>
	<circle fill="#EFD358" cx="88.763" cy="-41.54" r="8.938"/>
	<circle fill="#72C472" cx="108.358" cy="-41.54" r="8.938"/>
	<circle fill="#4DA34D" cx="128.297" cy="-41.54" r="8.938"/>
	<circle fill="#9EDB9E" cx="148.235" cy="-41.54" r="8.938"/>
	<circle fill="#76B5B5" cx="128.125" cy="-21.43" r="8.938"/>
	<circle fill="#76B5B5" cx="147.892" cy="-21.43" r="8.938"/>
	<circle fill="#335262" cx="168.347" cy="-21.43" r="8.938"/>
	<circle fill="#43A6DD" cx="168.347" cy="-40.395" r="8.938"/>
	<circle fill="#BADEFC" cx="147.233" cy="-61.508" r="8.938"/>
	<circle fill="#B29930" cx="88.763" cy="-21.258" r="8.938"/>
	<circle fill="#D1B43D" cx="108.015" cy="-21.258" r="8.938"/>
	<circle fill="#D8BC48" cx="69.169" cy="-18.967" r="8.938"/>
</g>
</svg>
